<svg xmlns="http://www.w3.org/2000/svg" width="1200" height="760" viewBox="0 0 1200 760" role="img" aria-labelledby="title desc">
  <title id="title">Shushu Internship Resume Optimizer workflow overview</title>
  <desc id="desc">A diagram showing inputs, core pipeline stages, optional knowledge flow, and generated outputs.</desc>
  <defs>
    <linearGradient id="bg" x1="0" x2="1" y1="0" y2="1">
      <stop offset="0%" stop-color="#f8fafc"/>
      <stop offset="100%" stop-color="#eef6ff"/>
    </linearGradient>
    <linearGradient id="panel" x1="0" x2="1" y1="0" y2="1">
      <stop offset="0%" stop-color="#ffffff"/>
      <stop offset="100%" stop-color="#f7fbff"/>
    </linearGradient>
    <style>
      .title { font: 700 30px 'Segoe UI', Arial, sans-serif; fill: #10233f; }
      .subtitle { font: 400 16px 'Segoe UI', Arial, sans-serif; fill: #3d556f; }
      .section { font: 700 18px 'Segoe UI', Arial, sans-serif; fill: #15304d; }
      .label { font: 600 16px 'Segoe UI', Arial, sans-serif; fill: #17324d; }
      .body { font: 400 14px 'Segoe UI', Arial, sans-serif; fill: #38516d; }
      .small { font: 400 13px 'Segoe UI', Arial, sans-serif; fill: #4d6683; }
      .card { fill: url(#panel); stroke: #c8d8ea; stroke-width: 2; rx: 18; ry: 18; }
      .stage { fill: #ffffff; stroke: #7fb3ff; stroke-width: 2.5; rx: 20; ry: 20; }
      .accent { fill: #e8f2ff; stroke: #7fb3ff; stroke-width: 2; rx: 16; ry: 16; }
      .output { fill: #f8fffb; stroke: #91c8a1; stroke-width: 2; rx: 16; ry: 16; }
      .arrow { stroke: #4b79b6; stroke-width: 3; fill: none; marker-end: url(#arrow); }
      .soft { stroke: #6c8db8; stroke-width: 2.5; stroke-dasharray: 7 6; fill: none; marker-end: url(#arrow); }
    </style>
    <marker id="arrow" markerWidth="10" markerHeight="10" refX="8" refY="5" orient="auto">
      <path d="M0,0 L10,5 L0,10 z" fill="#4b79b6"/>
    </marker>
  </defs>

  <rect width="1200" height="760" fill="url(#bg)"/>
  <text x="60" y="70" class="title">Shushu Internship Resume Optimizer</text>
  <text x="60" y="100" class="subtitle">From raw internship materials to resume-facing bullets and interview-facing explanations</text>

  <rect x="50" y="145" width="250" height="470" class="card"/>
  <text x="80" y="185" class="section">Inputs</text>
  <rect x="75" y="210" width="200" height="92" class="accent"/>
  <text x="95" y="240" class="label">sources.json</text>
  <text x="95" y="265" class="body">links local project notes,</text>
  <text x="95" y="285" class="body">repos, and business docs</text>

  <rect x="75" y="325" width="200" height="92" class="accent"/>
  <text x="95" y="355" class="label">target_jd.txt</text>
  <text x="95" y="380" class="body">target role, hiring focus,</text>
  <text x="95" y="400" class="body">and selection criteria</text>

  <rect x="75" y="440" width="200" height="92" class="accent"/>
  <text x="95" y="470" class="label">business docs</text>
  <text x="95" y="495" class="body">optional workflow, domain,</text>
  <text x="95" y="515" class="body">and context references</text>

  <rect x="330" y="145" width="530" height="470" class="card"/>
  <text x="365" y="185" class="section">Core pipeline</text>

  <rect x="365" y="220" width="460" height="100" class="stage"/>
  <text x="390" y="254" class="label">1. achievement_audit</text>
  <text x="390" y="280" class="body">extract achievements, evidence, metrics,</text>
  <text x="390" y="300" class="body">missing information, and user-check flags</text>

  <rect x="365" y="345" width="460" height="100" class="stage"/>
  <text x="390" y="379" class="label">2. resume_rank</text>
  <text x="390" y="405" class="body">rank achievements against the JD and rewrite</text>
  <text x="390" y="425" class="body">them into tighter resume-facing bullets</text>

  <rect x="365" y="470" width="460" height="100" class="stage"/>
  <text x="390" y="504" class="label">3. interview_pack</text>
  <text x="390" y="530" class="body">turn ranked notes into STAR drafts, project intros,</text>
  <text x="390" y="550" class="body">follow-up Q&amp;A, and risk answers</text>

  <path d="M290 260 C320 260, 330 260, 370 260" class="arrow"/>
  <path d="M595 320 L595 345" class="arrow"/>
  <path d="M595 445 L595 470" class="arrow"/>

  <rect x="885" y="145" width="265" height="470" class="card"/>
  <text x="925" y="185" class="section">Outputs</text>

  <rect x="910" y="215" width="215" height="78" class="output"/>
  <text x="930" y="245" class="label">overview.md / html</text>
  <text x="930" y="269" class="small">audit summary, evidence map,</text>
  <text x="930" y="287" class="small">and missing-info snapshot</text>

  <rect x="910" y="310" width="215" height="78" class="output"/>
  <text x="930" y="340" class="label">resume_rank.md</text>
  <text x="930" y="364" class="small">ranking, gaps, and resume</text>
  <text x="930" y="382" class="small">bullet guidance</text>

  <rect x="910" y="405" width="215" height="78" class="output"/>
  <text x="930" y="435" class="label">resume_project_summary.md</text>
  <text x="930" y="459" class="small">compressed resume-facing</text>
  <text x="930" y="477" class="small">project version</text>

  <rect x="910" y="500" width="215" height="98" class="output"/>
  <text x="930" y="530" class="label">project_intro.md</text>
  <text x="930" y="552" class="label">interview_qa.md</text>
  <text x="930" y="576" class="small">STAR, follow-up answers,</text>
  <text x="930" y="594" class="small">and interview checks</text>

  <path d="M825 270 C855 270, 870 255, 910 255" class="arrow"/>
  <path d="M825 395 C855 395, 870 349, 910 349" class="arrow"/>
  <path d="M825 520 C855 520, 870 548, 910 548" class="arrow"/>

  <rect x="355" y="650" width="500" height="64" class="accent"/>
  <text x="385" y="686" class="label">Optional: doc_knowledge</text>
  <text x="575" y="686" class="body">query business docs for workflow details, domain rules, and context</text>
  <path d="M250 486 C315 486, 335 682, 355 682" class="soft"/>
</svg>
